<mxfile host="app.diagrams.net" modified="2023-05-11T12:25:50.829Z" agent="Mozilla/5.0 (Windows NT 10.0; Win64; x64) AppleWebKit/537.36 (KHTML, like Gecko) Chrome/112.0.0.0 Safari/537.36" etag="F1iI6i8MDeef7-LmlTxn" version="21.2.9" type="device">
  <diagram name="Page-1" id="qvNJJwM7Z64eV7ARFQkG">
    <mxGraphModel dx="2261" dy="1933" grid="1" gridSize="10" guides="1" tooltips="1" connect="1" arrows="1" fold="1" page="1" pageScale="1" pageWidth="827" pageHeight="1169" math="0" shadow="0">
      <root>
        <mxCell id="0" />
        <mxCell id="1" parent="0" />
        <mxCell id="Oodndunrt_ga-Xx5YJJt-9" value="MQTT" style="shape=cylinder3;whiteSpace=wrap;html=1;boundedLbl=1;backgroundOutline=1;size=15;rotation=-90;" parent="1" vertex="1">
          <mxGeometry x="-180" y="268.13" width="246.25" height="373.75" as="geometry" />
        </mxCell>
        <mxCell id="Oodndunrt_ga-Xx5YJJt-36" value="" style="whiteSpace=wrap;html=1;aspect=fixed;fillColor=#e3c800;fontColor=#000000;strokeColor=#B09500;" parent="1" vertex="1">
          <mxGeometry x="19" y="350" width="80" height="80" as="geometry" />
        </mxCell>
        <mxCell id="Oodndunrt_ga-Xx5YJJt-5" value="" style="whiteSpace=wrap;html=1;aspect=fixed;fillColor=#f8cecc;strokeColor=#b85450;" parent="1" vertex="1">
          <mxGeometry x="550" y="360" width="310" height="310" as="geometry" />
        </mxCell>
        <mxCell id="Oodndunrt_ga-Xx5YJJt-33" value="" style="whiteSpace=wrap;html=1;aspect=fixed;fillColor=#fff2cc;strokeColor=#d6b656;" parent="1" vertex="1">
          <mxGeometry x="4" y="460" width="110" height="110" as="geometry" />
        </mxCell>
        <mxCell id="Oodndunrt_ga-Xx5YJJt-1" value="Service" style="ellipse;whiteSpace=wrap;html=1;fillColor=#d5e8d4;strokeColor=#82b366;" parent="1" vertex="1">
          <mxGeometry x="110" y="10" width="200" height="140" as="geometry" />
        </mxCell>
        <mxCell id="Oodndunrt_ga-Xx5YJJt-2" value="WebService" style="ellipse;whiteSpace=wrap;html=1;aspect=fixed;fillColor=#d5e8d4;strokeColor=#82b366;" parent="1" vertex="1">
          <mxGeometry x="-173" y="40" width="80" height="80" as="geometry" />
        </mxCell>
        <mxCell id="Oodndunrt_ga-Xx5YJJt-6" value="" style="whiteSpace=wrap;html=1;aspect=fixed;" parent="1" vertex="1">
          <mxGeometry x="580" y="380" width="150" height="150" as="geometry" />
        </mxCell>
        <mxCell id="Oodndunrt_ga-Xx5YJJt-7" value="transmetteur de données à la base" style="whiteSpace=wrap;html=1;aspect=fixed;" parent="1" vertex="1">
          <mxGeometry x="600" y="565" width="80" height="80" as="geometry" />
        </mxCell>
        <mxCell id="Oodndunrt_ga-Xx5YJJt-10" value="" style="endArrow=classic;html=1;rounded=0;entryX=0;entryY=0;entryDx=0;entryDy=0;exitX=1;exitY=1;exitDx=0;exitDy=0;" parent="1" source="Oodndunrt_ga-Xx5YJJt-1" target="Oodndunrt_ga-Xx5YJJt-6" edge="1">
          <mxGeometry width="50" height="50" relative="1" as="geometry">
            <mxPoint x="390" y="420" as="sourcePoint" />
            <mxPoint x="440" y="370" as="targetPoint" />
          </mxGeometry>
        </mxCell>
        <mxCell id="Oodndunrt_ga-Xx5YJJt-12" value="" style="endArrow=classic;html=1;rounded=0;entryX=0;entryY=0.5;entryDx=0;entryDy=0;exitX=1;exitY=0.5;exitDx=0;exitDy=0;fillColor=#fff2cc;strokeColor=#d6b656;strokeWidth=2;" parent="1" source="Oodndunrt_ga-Xx5YJJt-33" target="Oodndunrt_ga-Xx5YJJt-7" edge="1">
          <mxGeometry width="50" height="50" relative="1" as="geometry">
            <mxPoint x="390" y="420" as="sourcePoint" />
            <mxPoint x="440" y="370" as="targetPoint" />
          </mxGeometry>
        </mxCell>
        <mxCell id="Oodndunrt_ga-Xx5YJJt-13" value="" style="endArrow=classic;html=1;rounded=0;entryX=0;entryY=0.5;entryDx=0;entryDy=0;exitX=1;exitY=0.5;exitDx=0;exitDy=0;fillColor=#fff2cc;strokeColor=#d6b656;strokeWidth=2;" parent="1" source="Oodndunrt_ga-Xx5YJJt-33" target="Oodndunrt_ga-Xx5YJJt-6" edge="1">
          <mxGeometry width="50" height="50" relative="1" as="geometry">
            <mxPoint x="390" y="420" as="sourcePoint" />
            <mxPoint x="440" y="370" as="targetPoint" />
          </mxGeometry>
        </mxCell>
        <mxCell id="Oodndunrt_ga-Xx5YJJt-14" value="http (get)" style="text;strokeColor=none;fillColor=none;align=left;verticalAlign=middle;spacingLeft=4;spacingRight=4;overflow=hidden;points=[[0,0.5],[1,0.5]];portConstraint=eastwest;rotatable=0;whiteSpace=wrap;html=1;" parent="1" vertex="1">
          <mxGeometry x="412.5" y="320" width="80" height="30" as="geometry" />
        </mxCell>
        <mxCell id="Oodndunrt_ga-Xx5YJJt-16" value="Actionneur" style="html=1;shape=mxgraph.basic.isocube;isoAngle=15;" parent="1" vertex="1">
          <mxGeometry x="870" y="130" width="180" height="90" as="geometry" />
        </mxCell>
        <mxCell id="Oodndunrt_ga-Xx5YJJt-17" value="" style="endArrow=classic;html=1;rounded=0;entryX=0;entryY=0;entryDx=0;entryDy=75.9921240919884;entryPerimeter=0;exitX=1;exitY=0.25;exitDx=0;exitDy=0;fillColor=#e3c800;strokeColor=#B09500;strokeWidth=2;" parent="1" source="Oodndunrt_ga-Xx5YJJt-36" target="Oodndunrt_ga-Xx5YJJt-16" edge="1">
          <mxGeometry width="50" height="50" relative="1" as="geometry">
            <mxPoint x="390" y="420" as="sourcePoint" />
            <mxPoint x="440" y="370" as="targetPoint" />
          </mxGeometry>
        </mxCell>
        <mxCell id="Oodndunrt_ga-Xx5YJJt-18" value="&lt;font style=&quot;font-size: 14px;&quot;&gt;&lt;b&gt;NodeRed&lt;/b&gt; - gestionnaire de donnée&lt;/font&gt;" style="text;strokeColor=none;fillColor=none;align=left;verticalAlign=middle;spacingLeft=4;spacingRight=4;overflow=hidden;points=[[0,0.5],[1,0.5]];portConstraint=eastwest;rotatable=0;whiteSpace=wrap;html=1;" parent="1" vertex="1">
          <mxGeometry x="730" y="370" width="90" height="50" as="geometry" />
        </mxCell>
        <mxCell id="Oodndunrt_ga-Xx5YJJt-19" value="" style="endArrow=classic;html=1;rounded=0;entryX=1;entryY=0.5;entryDx=0;entryDy=0;exitX=0;exitY=0.5;exitDx=0;exitDy=0;" parent="1" source="Oodndunrt_ga-Xx5YJJt-1" target="Oodndunrt_ga-Xx5YJJt-2" edge="1">
          <mxGeometry width="50" height="50" relative="1" as="geometry">
            <mxPoint x="286" y="300" as="sourcePoint" />
            <mxPoint x="336" y="250" as="targetPoint" />
          </mxGeometry>
        </mxCell>
        <mxCell id="Oodndunrt_ga-Xx5YJJt-21" value="InfluxDB" style="shape=datastore;whiteSpace=wrap;html=1;" parent="1" vertex="1">
          <mxGeometry x="1040" y="375" width="150" height="220" as="geometry" />
        </mxCell>
        <mxCell id="Oodndunrt_ga-Xx5YJJt-24" value="TL16(nivEau)" style="shape=hexagon;perimeter=hexagonPerimeter2;whiteSpace=wrap;html=1;fixedSize=1;fillColor=#fff2cc;strokeColor=#d6b656;" parent="1" vertex="1">
          <mxGeometry x="-170" y="690" width="90" height="60" as="geometry" />
        </mxCell>
        <mxCell id="Oodndunrt_ga-Xx5YJJt-25" value="Grove(qualitéEau)" style="shape=hexagon;perimeter=hexagonPerimeter2;whiteSpace=wrap;html=1;fixedSize=1;fillColor=#fff2cc;strokeColor=#d6b656;" parent="1" vertex="1">
          <mxGeometry x="9" y="690" width="90" height="60" as="geometry" />
        </mxCell>
        <mxCell id="Oodndunrt_ga-Xx5YJJt-28" value="" style="endArrow=classic;html=1;rounded=0;exitX=0.5;exitY=0;exitDx=0;exitDy=0;entryX=0;entryY=0.5;entryDx=0;entryDy=0;entryPerimeter=0;" parent="1" source="Oodndunrt_ga-Xx5YJJt-24" target="Oodndunrt_ga-Xx5YJJt-9" edge="1">
          <mxGeometry width="50" height="50" relative="1" as="geometry">
            <mxPoint x="40" y="592.5" as="sourcePoint" />
            <mxPoint x="90" y="542.5" as="targetPoint" />
          </mxGeometry>
        </mxCell>
        <mxCell id="Oodndunrt_ga-Xx5YJJt-29" value="" style="endArrow=classic;html=1;rounded=0;exitX=0.5;exitY=0;exitDx=0;exitDy=0;entryX=0;entryY=0.5;entryDx=0;entryDy=0;entryPerimeter=0;" parent="1" source="Oodndunrt_ga-Xx5YJJt-25" target="Oodndunrt_ga-Xx5YJJt-9" edge="1">
          <mxGeometry width="50" height="50" relative="1" as="geometry">
            <mxPoint x="40" y="592.5" as="sourcePoint" />
            <mxPoint x="90" y="542.5" as="targetPoint" />
          </mxGeometry>
        </mxCell>
        <mxCell id="Oodndunrt_ga-Xx5YJJt-30" value="Topic TL136" style="shape=tapeData;whiteSpace=wrap;html=1;perimeter=ellipsePerimeter;" parent="1" vertex="1">
          <mxGeometry x="13.5" y="465" width="40.5" height="50" as="geometry" />
        </mxCell>
        <mxCell id="Oodndunrt_ga-Xx5YJJt-31" value="Topic Grove" style="shape=tapeData;whiteSpace=wrap;html=1;perimeter=ellipsePerimeter;" parent="1" vertex="1">
          <mxGeometry x="64" y="505" width="40" height="60" as="geometry" />
        </mxCell>
        <mxCell id="Oodndunrt_ga-Xx5YJJt-32" value="Topic actionneur" style="shape=tapeData;whiteSpace=wrap;html=1;perimeter=ellipsePerimeter;" parent="1" vertex="1">
          <mxGeometry x="43" y="360" width="40" height="60" as="geometry" />
        </mxCell>
        <mxCell id="Oodndunrt_ga-Xx5YJJt-37" value="" style="endArrow=classic;html=1;rounded=0;entryX=1;entryY=0.5;entryDx=0;entryDy=0;exitX=0;exitY=0.25;exitDx=0;exitDy=0;fillColor=#e3c800;strokeColor=#B09500;strokeWidth=2;" parent="1" source="Oodndunrt_ga-Xx5YJJt-38" target="Oodndunrt_ga-Xx5YJJt-36" edge="1">
          <mxGeometry width="50" height="50" relative="1" as="geometry">
            <mxPoint x="390" y="500" as="sourcePoint" />
            <mxPoint x="440" y="450" as="targetPoint" />
          </mxGeometry>
        </mxCell>
        <mxCell id="Oodndunrt_ga-Xx5YJJt-39" value="" style="endArrow=classic;html=1;rounded=0;entryX=1;entryY=0.5;entryDx=0;entryDy=0;exitX=0.25;exitY=0.25;exitDx=0;exitDy=0;fillColor=#e3c800;strokeColor=#B09500;exitPerimeter=0;strokeWidth=2;" parent="1" source="IYNZjTKLWVwbY_VHgmQ8-1" target="Oodndunrt_ga-Xx5YJJt-38" edge="1">
          <mxGeometry width="50" height="50" relative="1" as="geometry">
            <mxPoint x="580" y="400" as="sourcePoint" />
            <mxPoint x="99" y="390" as="targetPoint" />
          </mxGeometry>
        </mxCell>
        <mxCell id="Oodndunrt_ga-Xx5YJJt-38" value="pub" style="text;strokeColor=none;fillColor=none;align=left;verticalAlign=middle;spacingLeft=4;spacingRight=4;overflow=hidden;points=[[0,0.5],[1,0.5]];portConstraint=eastwest;rotatable=0;whiteSpace=wrap;html=1;" parent="1" vertex="1">
          <mxGeometry x="310" y="380" width="46" height="20" as="geometry" />
        </mxCell>
        <mxCell id="Oodndunrt_ga-Xx5YJJt-40" value="sub" style="text;strokeColor=none;fillColor=none;align=left;verticalAlign=middle;spacingLeft=4;spacingRight=4;overflow=hidden;points=[[0,0.5],[1,0.5]];portConstraint=eastwest;rotatable=0;whiteSpace=wrap;html=1;" parent="1" vertex="1">
          <mxGeometry x="550" y="430" width="80" height="30" as="geometry" />
        </mxCell>
        <mxCell id="Oodndunrt_ga-Xx5YJJt-42" value="sub" style="text;strokeColor=none;fillColor=none;align=left;verticalAlign=middle;spacingLeft=4;spacingRight=4;overflow=hidden;points=[[0,0.5],[1,0.5]];portConstraint=eastwest;rotatable=0;whiteSpace=wrap;html=1;" parent="1" vertex="1">
          <mxGeometry x="560" y="615" width="80" height="30" as="geometry" />
        </mxCell>
        <mxCell id="Oodndunrt_ga-Xx5YJJt-43" value="sub" style="text;strokeColor=none;fillColor=none;align=left;verticalAlign=middle;spacingLeft=4;spacingRight=4;overflow=hidden;points=[[0,0.5],[1,0.5]];portConstraint=eastwest;rotatable=0;whiteSpace=wrap;html=1;" parent="1" vertex="1">
          <mxGeometry x="870" y="215" width="80" height="30" as="geometry" />
        </mxCell>
        <mxCell id="Oodndunrt_ga-Xx5YJJt-44" value="" style="endArrow=classic;html=1;rounded=0;entryX=0;entryY=0.5;entryDx=0;entryDy=0;exitX=1;exitY=0.5;exitDx=0;exitDy=0;fillColor=#0050ef;strokeColor=#001DBC;" parent="1" source="Oodndunrt_ga-Xx5YJJt-5" target="Oodndunrt_ga-Xx5YJJt-21" edge="1">
          <mxGeometry width="50" height="50" relative="1" as="geometry">
            <mxPoint x="860" y="500" as="sourcePoint" />
            <mxPoint x="910" y="450" as="targetPoint" />
          </mxGeometry>
        </mxCell>
        <mxCell id="Oodndunrt_ga-Xx5YJJt-45" value="http&amp;nbsp;" style="text;strokeColor=#001DBC;fillColor=#0050ef;align=left;verticalAlign=middle;spacingLeft=4;spacingRight=4;overflow=hidden;points=[[0,0.5],[1,0.5]];portConstraint=eastwest;rotatable=0;whiteSpace=wrap;html=1;fontColor=#ffffff;" parent="1" vertex="1">
          <mxGeometry x="840" y="460" width="80" height="30" as="geometry" />
        </mxCell>
        <mxCell id="Oodndunrt_ga-Xx5YJJt-46" value="" style="endArrow=classic;html=1;rounded=0;exitX=1;exitY=0.5;exitDx=0;exitDy=0;entryX=1;entryY=0.5;entryDx=0;entryDy=0;fillColor=#0050ef;strokeColor=#001DBC;" parent="1" source="Oodndunrt_ga-Xx5YJJt-7" target="Oodndunrt_ga-Xx5YJJt-5" edge="1">
          <mxGeometry width="50" height="50" relative="1" as="geometry">
            <mxPoint x="860" y="500" as="sourcePoint" />
            <mxPoint x="910" y="450" as="targetPoint" />
          </mxGeometry>
        </mxCell>
        <mxCell id="Oodndunrt_ga-Xx5YJJt-47" value="http&amp;nbsp;" style="text;strokeColor=#001DBC;fillColor=#0050ef;align=left;verticalAlign=middle;spacingLeft=4;spacingRight=4;overflow=hidden;points=[[0,0.5],[1,0.5]];portConstraint=eastwest;rotatable=0;whiteSpace=wrap;html=1;fontColor=#ffffff;" parent="1" vertex="1">
          <mxGeometry x="760" y="580" width="80" height="30" as="geometry" />
        </mxCell>
        <mxCell id="Oodndunrt_ga-Xx5YJJt-48" value="Proxy" style="rounded=0;whiteSpace=wrap;html=1;rotation=-90;" parent="1" vertex="1">
          <mxGeometry x="-190" y="-140" width="97" height="30" as="geometry" />
        </mxCell>
        <mxCell id="Oodndunrt_ga-Xx5YJJt-49" value="Dashboard" style="rounded=0;whiteSpace=wrap;html=1;" parent="1" vertex="1">
          <mxGeometry x="-180" y="-170" width="100" height="30" as="geometry" />
        </mxCell>
        <mxCell id="Oodndunrt_ga-Xx5YJJt-50" value="API meteo" style="rounded=0;whiteSpace=wrap;html=1;" parent="1" vertex="1">
          <mxGeometry x="161.5" y="100" width="97" height="30" as="geometry" />
        </mxCell>
        <mxCell id="IYNZjTKLWVwbY_VHgmQ8-1" value="Algorithme IA" style="ellipse;shape=cloud;whiteSpace=wrap;html=1;" vertex="1" parent="1">
          <mxGeometry x="590" y="380" width="110" height="70" as="geometry" />
        </mxCell>
        <mxCell id="IYNZjTKLWVwbY_VHgmQ8-2" value="&lt;font style=&quot;font-size: 13px;&quot;&gt;Controleur&lt;/font&gt;" style="text;strokeColor=none;fillColor=none;align=left;verticalAlign=middle;spacingLeft=4;spacingRight=4;overflow=hidden;points=[[0,0.5],[1,0.5]];portConstraint=eastwest;rotatable=0;whiteSpace=wrap;html=1;" vertex="1" parent="1">
          <mxGeometry x="620" y="470" width="80" height="30" as="geometry" />
        </mxCell>
      </root>
    </mxGraphModel>
  </diagram>
</mxfile>
